<?xml version="1.0" standalone="no"?>
<svg version="1.1" id="Layer_1" xmlns="http://www.w3.org/2000/svg" xmlns:xlink="http://www.w3.org/1999/xlink" x="0px" y="0px" width="595.28px" height="595.28px" viewBox="0 0 595.28 595.28" enable-background="new 0 0 595.28 595.28" xml:space="preserve">
<path id="color_x5F_5" fill="#FFD2BB" d="M450.45,290.671c-0.383,0.734-0.098,1.641,0.637,2.023c0.25,0.131,0.519,0.178,0.781,0.162
	c-1.541,3.52-8.089,16.836-11.543,21.113l-6.522-6.683l-0.659-0.675c0.455-0.572,1.025-1.223,1.662-1.912
	c0.358-0.391,0.74-0.793,1.137-1.201c0.134-0.139,0.271-0.279,0.408-0.418c3.288-3.366,7.265-6.963,7.265-6.963
	s1.746-1.857,3.802-3.701c0,0,1.723-2.246,2.056-3.088c0.751-1.907,2.575-3.807,4.388-5.199L450.45,290.671z M458.326,282.057
	l-3.733,7.158c1.781-2.338,3.832-5.444,3.91-6.823C458.513,282.222,458.438,282.123,458.326,282.057z M433.132,306.632
	c-0.213,0.27-0.399,0.521-0.556,0.751C432.937,306.962,433.11,306.67,433.132,306.632z M436.936,280.8
	c0.39,0.109,0.758,0.168,1.045,0.152c1.288-0.07,0.587-1.5,0.504-3.027c-0.014-0.223-0.049-0.436-0.102-0.641
	c0.053-0.113,0.108-0.227,0.164-0.338c0.781-1.563,1.196-3.193,1.291-4.777l-0.058-0.033c-0.422-0.207-5.761-2.672-5.308-2.256
	c-0.09,2.717-1.073,5.051-2.745,6.357c0.068-0.795-0.043-1.602-0.394-2.307c-0.666-1.348-2.339-2.297-3.835-1.734
	c-0.346,0.129-0.623,0.336-0.827,0.586c-0.357,0.291-0.635,0.674-0.803,1.143c-0.381,1.066-0.03,2.205,0.78,2.877
	c0.22,0.183,0.467,0.338,0.75,0.439c0.015,0.005,0.031,0.01,0.046,0.015c0.038,0.013,0.076,0.026,0.114,0.036
	c-0.163,0.051-2.906-0.698-5.17-2.854c-0.929,0.901-4.112,6.448-6.332,8.646c-0.073,0.072-0.148,0.152-0.218,0.217l7.71,7.113
	l4.004-6.941c0.937,0.979,1.885,1.78,2.772,2.342c0.233,0.148,0.465,0.289,0.688,0.4C434.426,287.923,435.466,284.753,436.936,280.8
	z M163.702,385.155c-0.134-0.139-0.271-0.278-0.408-0.418c-3.288-3.364-7.265-6.961-7.265-6.961s-1.746-1.857-3.802-3.701
	c0,0-1.723-2.248-2.056-3.09c-0.57-1.445-1.758-2.883-3.088-4.103l2.761,4.099c0.462,0.686,0.281,1.619-0.406,2.082
	c-0.687,0.463-1.62,0.281-2.082-0.406l-6.028-8.949c-0.118,0.064-0.197,0.165-0.187,0.34c0.124,2.182,5.185,8.691,6.303,9.633
	c0.187,0.881,7.99,17.137,11.875,21.945l6.522-6.683l0.658-0.675c-0.455-0.57-1.025-1.221-1.662-1.912
	C164.48,385.966,164.098,385.563,163.702,385.155z M167.065,389.037c-0.156-0.229-0.342-0.479-0.554-0.749
	C166.534,388.326,166.707,388.618,167.065,389.037z M175.295,364.8c-2.122-3.104-2.916-5.76-3.209-5.852
	c0.053-0.014,0.108-0.033,0.16-0.051c1.328-0.477,2.015-1.961,1.53-3.316c-0.167-0.467-0.445-0.85-0.803-1.143
	c-0.204-0.248-0.481-0.455-0.827-0.586c-1.496-0.563-3.169,0.387-3.835,1.736c-0.351,0.703-0.462,1.512-0.394,2.305
	c-1.672-1.305-2.655-3.639-2.745-6.355c0.454-0.416-4.886,2.047-5.308,2.254l-0.058,0.033c0.095,1.584,0.509,3.215,1.291,4.777
	c0.056,0.111,0.111,0.225,0.164,0.338c-0.053,0.205-0.088,0.42-0.102,0.643c-0.083,1.527-0.784,2.957,0.504,3.027
	c0.288,0.016,0.655-0.043,1.045-0.152c1.47,3.953,2.51,7.121,5.923,5.412c0.223-0.111,0.455-0.252,0.688-0.4
	c0.887-0.562,1.835-1.362,2.772-2.34l4.004,6.939l2.658-3.26C177.319,367.498,176.191,366.109,175.295,364.8z"></path>
<path id="color_x5F_3" fill="#E84393" d="M448.588,176.077v-8.594c0-0.74,0.601-1.34,1.341-1.34c0.741,0,1.341,0.6,1.341,1.34v8.594
	c0,0.742-0.6,1.342-1.341,1.342C449.189,177.419,448.588,176.819,448.588,176.077z M449.929,208.571
	c0.741,0,1.341-0.602,1.341-1.342v-8.594c0-0.742-0.6-1.342-1.341-1.342c-0.74,0-1.341,0.6-1.341,1.342v8.594
	C448.588,207.97,449.189,208.571,449.929,208.571z M430.057,188.698h8.594c0.74,0,1.341-0.602,1.341-1.342s-0.601-1.342-1.341-1.342
	h-8.594c-0.74,0-1.342,0.602-1.342,1.342S429.317,188.698,430.057,188.698z M459.868,187.356c0,0.74,0.601,1.342,1.341,1.342h8.594
	c0.741,0,1.342-0.602,1.342-1.342s-0.601-1.342-1.342-1.342h-8.594C460.468,186.015,459.868,186.616,459.868,187.356z
	 M441.006,180.331c0.262,0.262,0.604,0.393,0.948,0.393c0.343,0,0.686-0.131,0.948-0.393c0.524-0.525,0.524-1.373,0-1.898
	l-6.078-6.076c-0.523-0.525-1.372-0.525-1.896,0c-0.523,0.523-0.523,1.373,0,1.896L441.006,180.331z M463.034,202.358
	c0.262,0.262,0.605,0.393,0.948,0.393s0.687-0.131,0.948-0.393c0.524-0.525,0.524-1.373,0-1.898l-6.076-6.076
	c-0.525-0.523-1.374-0.523-1.898,0c-0.523,0.523-0.523,1.373,0,1.896L463.034,202.358z M441.006,194.384l-6.078,6.076
	c-0.523,0.525-0.523,1.373,0,1.898c0.263,0.262,0.605,0.393,0.949,0.393s0.687-0.131,0.947-0.393l6.078-6.078
	c0.524-0.523,0.524-1.373,0-1.896C442.379,193.86,441.53,193.86,441.006,194.384z M457.905,180.724c0.343,0,0.687-0.131,0.949-0.393
	l6.076-6.078c0.524-0.523,0.524-1.373,0-1.896c-0.523-0.525-1.373-0.525-1.896,0l-6.078,6.076c-0.523,0.525-0.523,1.373,0,1.898
	C457.218,180.593,457.561,180.724,457.905,180.724z M157.929,230.101c0.741,0,1.341-0.6,1.341-1.34v-8.594
	c0-0.74-0.6-1.342-1.341-1.342c-0.74,0-1.341,0.602-1.341,1.342v8.594C156.588,229.501,157.189,230.101,157.929,230.101z
	 M157.929,261.253c0.741,0,1.341-0.6,1.341-1.342v-8.594c0-0.74-0.6-1.342-1.341-1.342c-0.74,0-1.341,0.602-1.341,1.342v8.594
	C156.588,260.653,157.189,261.253,157.929,261.253z M138.057,241.38h8.594c0.74,0,1.341-0.6,1.341-1.342
	c0-0.74-0.601-1.34-1.341-1.34h-8.594c-0.74,0-1.342,0.6-1.342,1.34C136.715,240.78,137.317,241.38,138.057,241.38z
	 M167.868,240.038c0,0.742,0.601,1.342,1.341,1.342h8.594c0.741,0,1.342-0.6,1.342-1.342c0-0.74-0.601-1.34-1.342-1.34h-8.594
	C168.468,238.698,167.868,239.298,167.868,240.038z M149.006,233.013c0.262,0.262,0.604,0.393,0.948,0.393
	c0.343,0,0.686-0.131,0.948-0.393c0.524-0.525,0.524-1.373,0-1.896l-6.078-6.078c-0.523-0.523-1.372-0.523-1.896,0
	c-0.523,0.523-0.523,1.373,0,1.896L149.006,233.013z M171.034,255.04c0.262,0.262,0.605,0.393,0.948,0.393s0.687-0.131,0.948-0.393
	c0.524-0.523,0.524-1.373,0-1.896l-6.076-6.078c-0.525-0.523-1.374-0.523-1.898,0c-0.523,0.525-0.523,1.373,0,1.896L171.034,255.04z
	 M149.006,247.065l-6.078,6.078c-0.523,0.523-0.523,1.373,0,1.896c0.263,0.262,0.605,0.393,0.949,0.393s0.687-0.131,0.947-0.393
	l6.078-6.078c0.524-0.523,0.524-1.371,0-1.896C150.379,246.542,149.53,246.542,149.006,247.065z M165.905,233.405
	c0.343,0,0.687-0.131,0.949-0.393l6.076-6.078c0.524-0.523,0.524-1.373,0-1.896c-0.523-0.523-1.373-0.523-1.896,0l-6.078,6.078
	c-0.523,0.523-0.523,1.371,0,1.896C165.218,233.274,165.561,233.405,165.905,233.405z"></path>
<path id="color_x5F_2_1_" fill="#E83F30" d="M117.156,435.353c1.219-0.934,3.27-1.823,6.725-2.059c0.252-0.018,0.48-0.02,0.688-0.01
	c-1.758,2.786-3.437,5.562-4.881,8.133c-1.651-1.955-4.138-3.201-6.92-3.201c-3.669,0-6.818,2.168-8.222,5.273
	c-0.287-3.254-1.857-6.141-4.204-8.18c1.925,0.186,3.342,0.383,3.342,0.383s-14.19-4.016-19.865-14.684
	c-4.063-7.633,4.132-5.024,9.121-2.924c-3.906-4.158-12.522-17.326-9.025-23.074c4.143-6.809,16.503,10.475,11.534,2.869
	c-4.966-7.605-5.217-22.367,6.887-27.686c12.103-5.32,6.711,18.328,6.145,26.518c-0.566,8.188,2.204,10.838,2.204,10.838
	s1.024-11.996,10.129-15.121c7.448-2.554-1.652,16.637-5.219,23.724c1.731-2.831,5.127-6.759,9.963-4.903
	C131.367,413.477,121.386,429.16,117.156,435.353z M486.155,417.013c3.906-4.158,12.521-17.326,9.025-23.074
	c-4.143-6.809-16.503,10.475-11.534,2.869c4.966-7.605,5.217-22.367-6.887-27.686c-12.103-5.32-6.711,18.328-6.145,26.518
	c0.566,8.188-2.204,10.838-2.204,10.838s-1.024-11.996-10.129-15.121c-7.448-2.554,1.652,16.637,5.219,23.724
	c-1.731-2.831-5.127-6.759-9.963-4.903c-5.809,2.228,4.173,17.911,8.403,24.104c-1.219-0.934-3.271-1.823-6.725-2.059
	c-5.265-0.355-0.514,5.406,3.323,9.363c1.557-2.652,4.459-4.441,7.791-4.441c3.669,0,6.818,2.168,8.222,5.273
	c0.287-3.254,1.857-6.141,4.204-8.18c-1.925,0.186-3.342,0.383-3.342,0.383s14.19-4.016,19.865-14.684
	C499.339,412.304,491.145,414.912,486.155,417.013z"></path>
<path id="color_x5F_2" fill="#FBC02D" d="M142.117,456.964H70.996c0.141-4.563,3.926-8.223,8.583-8.223
	c0.259,0,0.513,0.018,0.765,0.039c-0.486-1.316-0.765-2.729-0.765-4.209c0-6.818,5.603-12.344,12.511-12.344
	c3.167,0,6.05,1.168,8.251,3.082c2.346,2.039,3.917,4.926,4.204,8.18c1.403-3.105,4.552-5.273,8.222-5.273
	c2.782,0,5.269,1.246,6.92,3.201c-0.861,1.535-1.636,2.994-2.293,4.338c-0.535,1.096-0.985,2.107-1.342,3.025h-0.184
	c0,0-2.719,2.961-3.934,3.445c-2.574,1.027-9.79,0.152-9.895,2.984c-0.069,1.84,3.667,1.752,3.667,1.752h16.5l-0.511-5.126
	c2.25-1.274,4.903-3.081,7.674-5.152c0.177,0.002,0.354,0.005,0.529,0.013C135.938,446.987,140.898,451.292,142.117,456.964z
	 M499.515,447.669c-0.259,0-0.513,0.018-0.765,0.039c0.486-1.316,0.765-2.729,0.765-4.209c0-6.818-5.603-12.344-12.511-12.344
	c-3.167,0-6.05,1.168-8.251,3.082c-2.346,2.039-3.917,4.926-4.204,8.18c-1.403-3.105-4.552-5.273-8.222-5.273
	c-3.332,0-6.233,1.789-7.791,4.441c-0.767,1.308-1.213,2.82-1.213,4.439c0,0.715,0.094,1.408,0.257,2.074
	c-1.673-1.201-3.64-2.023-5.775-2.342c-0.639-0.096-1.291-0.148-1.958-0.148c-0.218,0-0.436,0.006-0.652,0.016
	c-6.039,0.291-10.999,4.596-12.218,10.268h71.121C507.958,451.329,504.173,447.669,499.515,447.669z M440.325,313.97l-5.636,7.502
	c0,0-0.454,1.035-1.582,1.755c-0.242,6.665-1.062,12.582-2.221,17.429h-1.018c-0.028-0.121-0.053-0.245-0.085-0.363h-3.769h-20.835
	h-0.174c-0.059,0.119-0.11,0.242-0.167,0.363h-1.217c0.282-2.877,0.41-42.379,0.369-43.092c-0.465-8.066,4.641-14.459,12.066-14.48
	c-0.073,0.072-0.148,0.152-0.218,0.217l7.71,7.113l4.004-6.941c0.937,0.979,1.885,1.78,2.772,2.342
	c0.339,0.724,0.238,1.785,0.258,2.434c0,0,5.825,11.32,5.825,14.092c0,0.252-0.027,0.498-0.057,0.742
	c-0.136,0.139-0.274,0.279-0.408,0.418c-0.396,0.408-0.778,0.811-1.137,1.201c-0.637,0.689-1.207,1.34-1.662,1.912l0.659,0.675
	L440.325,313.97z M432.576,307.383c0.36-0.421,0.534-0.713,0.556-0.751C432.919,306.901,432.733,307.152,432.576,307.383z
	 M524.284,228.88v24.193c0,4.703-3.812,8.514-8.514,8.514h-21.206l-11.737,10.137l4.679-10.137h-5.165
	c-4.702,0-8.514-3.811-8.514-8.514V228.88c0-4.701,3.812-8.514,8.514-8.514h33.429C520.473,220.366,524.284,224.179,524.284,228.88z
	 M510.427,239.446c-1.213,0.422-2.089,1.563-2.089,2.92c0,1.713,1.389,3.102,3.103,3.102c1.714,0,3.103-1.389,3.103-3.102
	c0-0.014-0.004-0.027-0.004-0.041c-0.022-1.695-1.399-3.063-3.099-3.063C511.083,239.263,510.746,239.335,510.427,239.446z
	 M499.875,239.263c-1.713,0-3.103,1.389-3.103,3.104c0,1.713,1.389,3.102,3.103,3.102c1.714,0,3.103-1.389,3.103-3.102
	C502.979,240.651,501.589,239.263,499.875,239.263z M488.311,245.468c1.714,0,3.103-1.389,3.103-3.102
	c0-1.715-1.389-3.104-3.103-3.104c-1.713,0-3.103,1.389-3.103,3.104C485.208,244.079,486.598,245.468,488.311,245.468z
	 M194.539,416.296c1.677,3.833,1.85,7.723,1.402,11.269c-1-1.661-2.622-3.095-5.047-4.165c-1.439-0.635-3.88-1.682-6.915-2.924
	c-3.753-1.535-8.419-3.369-13.256-5.104c-1.139-0.409-2.285-0.812-3.433-1.203c-0.374-2.887-0.634-5.994-0.753-9.285
	c-1.128-0.72-1.582-1.754-1.582-1.754l-5.636-7.504l6.522-6.683l0.658-0.675c-0.455-0.57-1.025-1.221-1.662-1.912
	c-0.358-0.391-0.74-0.793-1.137-1.201c-0.134-0.139-0.271-0.278-0.408-0.418c-0.03-0.244-0.057-0.49-0.057-0.742
	c0-2.771,5.825-14.092,5.825-14.092c0.02-0.648-0.081-1.71,0.258-2.434c0.887-0.562,1.835-1.362,2.772-2.34l4.004,6.939l2.658-3.26
	c3.033,2.771,7.411,5.193,13.743,5.756c0.957,0.086,1.877,0.071,2.766-0.016c0.339,1.463,0.486,3.029,0.391,4.67
	C195.613,379.935,190.718,407.563,194.539,416.296z M166.512,388.288c0.022,0.038,0.195,0.33,0.554,0.749
	C166.909,388.808,166.724,388.558,166.512,388.288z M142.344,298.138v24.193c0,4.703-3.812,8.516-8.514,8.516h-5.165l4.679,10.137
	l-11.736-10.137h-21.207c-4.702,0-8.514-3.813-8.514-8.516v-24.193c0-4.701,3.812-8.514,8.514-8.514h33.429
	C138.533,289.624,142.344,293.437,142.344,298.138z M101.875,310.931c0,0.154,0.023,0.303,0.045,0.451
	c0.22,1.497,1.499,2.65,3.057,2.65c1.714,0,3.103-1.389,3.103-3.102c0-1.18-0.665-2.192-1.632-2.717
	c-0.439-0.239-0.935-0.387-1.47-0.387C103.264,307.827,101.875,309.216,101.875,310.931z M119.614,311.234
	c0.01-0.102,0.031-0.2,0.031-0.304c0-1.064-0.537-2.002-1.353-2.561c-0.498-0.342-1.1-0.543-1.75-0.543
	c-1.713,0-3.103,1.389-3.103,3.104c0,1.713,1.389,3.102,3.103,3.102C118.152,314.032,119.459,312.803,119.614,311.234z
	 M131.209,310.931c0-1.715-1.389-3.104-3.103-3.104c-1.713,0-3.103,1.389-3.103,3.104c0,1.713,1.389,3.102,3.103,3.102
	C129.82,314.032,131.209,312.644,131.209,310.931z M225.372,152.253h156v272h-156V152.253z M354.849,372.69
	c0-9.521-8.897-17.24-19.873-17.24h-65.895c-10.976,0-19.873,7.719-19.873,17.24c0,9.52,8.897,17.24,19.873,17.24h9.304l13.2,8.322
	l-5.351-8.322h48.741C345.952,389.931,354.849,382.21,354.849,372.69z M356.559,309.28c0-9.521-8.897-17.24-19.873-17.24h-65.895
	c-10.976,0-19.873,7.719-19.873,17.24c0,9.52,8.897,17.24,19.873,17.24h48.742l-5.351,8.322l13.2-8.322h9.304
	C347.662,326.521,356.559,318.8,356.559,309.28z M354.849,250.839c0-9.521-8.897-17.24-19.873-17.24h-65.895
	c-10.976,0-19.873,7.719-19.873,17.24c0,9.52,8.897,17.24,19.873,17.24h9.304l13.2,8.322l-5.351-8.322h48.741
	C345.952,268.079,354.849,260.358,354.849,250.839z M248.918,194.429c0,9.52,8.897,17.238,19.873,17.238h48.742l-5.351,8.322
	l13.2-8.322h9.304c10.976,0,19.873-7.719,19.873-17.238c0-9.521-8.897-17.24-19.873-17.24h-65.895
	C257.816,177.188,248.918,184.907,248.918,194.429z"></path>
<path id="color_x5F_1" fill="#0984E3" d="M422.388,274.438c-2.621-2.497-4.599-6.88-1.183-14.106c0.234-0.43,0.5-0.85,0.799-1.264
	l0.003-0.006c1.92-2.615,5.288-4.607,11.338-2.193l0.032,0.018c0.099,0.041,0.203,0.092,0.303,0.146
	c2.043,1.018,1.196,0.916,2.951,1.887c0.342,0.193,0.788,0.424,1.373,0.721c2.562,1.268,4.982,0.68,7.141,1.764
	c2.925,1.459,4.089,5.051,2.604,8.012c-1.475,2.945-4.997,4.166-7.909,2.756l-0.004-0.002l-0.058-0.033
	c-0.422-0.207-5.761-2.672-5.308-2.256c-0.09,2.717-1.073,5.051-2.745,6.357c0.068-0.795-0.043-1.602-0.394-2.307
	c-0.666-1.348-2.339-2.297-3.835-1.734c-0.346,0.129-0.623,0.336-0.827,0.586c-0.357,0.291-0.635,0.674-0.803,1.143
	c-0.381,1.066-0.03,2.205,0.78,2.877c0.22,0.183,0.467,0.338,0.75,0.439c0.015,0.005,0.031,0.01,0.046,0.015
	c0.056,0.025,0.099,0.041,0.114,0.036C427.396,277.343,424.652,276.594,422.388,274.438z M450.737,370.396
	c1.358,1.661,2.245,3.634,2.107,5.824c0.009,0.369-0.04,0.695-0.131,0.992c-0.44,2.16-1.901,4.508-4.915,6.971
	c-3.273,2.676-12.646,10.172-21.639,16.655c-1.279,14.433-3.711,38.231-6.425,48.667c0.888,0.909,2.415,2.391,3.244,2.721
	c2.574,1.027,9.79,0.152,9.895,2.984c0.069,1.84-3.667,1.752-3.667,1.752h-16.5l0.816-8.182h0.828
	c-2.09-8.619-3.779-25.007-4.507-37.737c-0.932,0.373-1.7,0.577-2.267,0.577c-0.656,0.756-1.28,1.563-1.467,2.084
	c-0.939,2.607,0.179,9.789-2.646,9.99c-1.837,0.133-1.876-3.605-1.876-3.605l-0.561-16.49l8.067,0.528
	c0.138-0.233,0.272-0.464,0.419-0.704c-0.088-3.263-0.073-5.947,0.06-7.719c0.437-5.788,1.815-10.921,3.666-14.49
	c-3.644-7.775-7.017-17.94-8.769-25.299c-2.847-5.084-2.821-10.989,0.282-15.066c0.029-0.064,0.059-0.129,0.088-0.193
	c0.056-0.121,0.108-0.244,0.167-0.363h0.174h20.835h3.769c0.032,0.118,0.057,0.242,0.085,0.363c0.212,0.898,0.34,1.876,0.34,2.971
	c0,0.325-0.001,0.701-0.004,1.114c6.81,7.352,16.186,18.089,20.417,25.538C450.657,370.32,450.702,370.353,450.737,370.396z
	 M432.991,374.353c-1.394-0.591-2.802-1.217-4.208-1.869c-0.259,2.474-0.565,4.877-0.924,7.113
	C429.891,377.349,431.679,375.513,432.991,374.353z M463.57,268.755c-0.734-0.383-1.641-0.098-2.023,0.637l-7.686,14.738
	l-3.411,6.541c-0.383,0.734-0.098,1.641,0.637,2.023c0.25,0.131,0.519,0.178,0.781,0.162c0.509-0.031,0.99-0.314,1.242-0.799
	l1.482-2.843l3.733-7.158l5.881-11.278C464.59,270.044,464.305,269.138,463.57,268.755z M186.823,345.933
	c-4.153,0.344-6.999-1.99-8.384-3.945c-0.234-0.43-0.5-0.85-0.799-1.262l-0.003-0.006c-1.92-2.615-5.288-4.609-11.338-2.195
	l-0.032,0.018c-0.099,0.043-0.203,0.092-0.303,0.146c-2.043,1.018-1.196,0.918-2.951,1.889c-0.342,0.193-0.788,0.422-1.373,0.721
	c-2.562,1.266-4.982,0.678-7.141,1.762c-2.925,1.459-4.089,5.053-2.604,8.012c1.475,2.945,4.997,4.168,7.909,2.758l0.004-0.004
	l0.058-0.033c0.422-0.207,5.761-2.67,5.308-2.254c0.09,2.717,1.073,5.051,2.745,6.355c-0.068-0.793,0.043-1.602,0.394-2.305
	c0.666-1.35,2.339-2.299,3.835-1.736c0.346,0.131,0.623,0.338,0.827,0.586c0.357,0.293,0.635,0.676,0.803,1.143
	c0.484,1.355-0.203,2.84-1.53,3.316c-0.052,0.018-0.107,0.037-0.16,0.051c0.293,0.092,1.087,2.748,3.209,5.852
	c0.896,1.31,2.024,2.698,3.459,4.01c3.033,2.771,7.411,5.193,13.743,5.756c0.957,0.086,1.877,0.071,2.766-0.016
	c1.833-0.18,3.517-0.696,5.014-1.484C212.212,366.786,212.596,343.798,186.823,345.933z M190.894,423.399
	c-1.439-0.635-3.88-1.682-6.915-2.924c-3.753-1.535-8.419-3.369-13.256-5.104c-1.139-0.409-2.285-0.812-3.433-1.203
	c-7.065-2.414-14.094-4.405-18.828-4.768c-3.201-1.395-6.876-0.882-10.426,4.012c-2.199,3.032-8.175,11.483-13.469,19.871
	c-1.758,2.786-3.437,5.562-4.881,8.133c-0.861,1.535-1.636,2.994-2.293,4.338c-0.535,1.096-0.985,2.107-1.342,3.025h-0.184
	c0,0-2.719,2.961-3.934,3.445c-2.574,1.027-9.79,0.152-9.895,2.984c-0.069,1.84,3.667,1.752,3.667,1.752h16.5l-0.511-5.126
	c2.25-1.274,4.903-3.081,7.674-5.152c8.291-6.197,17.616-14.74,20.241-18.358c0.645-0.889,1.206-1.803,1.699-2.726
	c8.207,8.94,19.932,18.638,24.564,20.683c7.831,3.457,16.529,0.938,19.43-5.633c2.002-4.534,2.868-9.38,0.637-13.085
	C194.94,425.903,193.319,424.47,190.894,423.399z M141.328,363.708l6.028,8.949c0.462,0.688,1.395,0.869,2.082,0.406
	c0.687-0.463,0.868-1.396,0.406-2.082l-2.761-4.099l-10.646-15.808c-0.462-0.686-1.395-0.869-2.082-0.404
	c-0.688,0.461-0.869,1.395-0.406,2.082L141.328,363.708z M395.697,145.37v304.539c0,3.896-3.158,7.055-7.054,7.055H218.1
	c-3.896,0-7.054-3.158-7.054-7.055V145.37c0-3.896,3.158-7.053,7.054-7.053h170.543C392.539,138.317,395.697,141.474,395.697,145.37
	z M381.372,152.253h-156v272h156V152.253z M270.875,198.251c1.841,0,3.333-1.492,3.333-3.334c0-1.84-1.492-3.332-3.333-3.332
	c-1.841,0-3.333,1.492-3.333,3.332C267.542,196.759,269.034,198.251,270.875,198.251z M292.208,198.251
	c1.841,0,3.333-1.492,3.333-3.334c0-1.84-1.492-3.332-3.333-3.332c-1.841,0-3.333,1.492-3.333,3.332
	C288.875,196.759,290.367,198.251,292.208,198.251z M313.542,198.251c1.841,0,3.333-1.492,3.333-3.334
	c0-1.84-1.492-3.332-3.333-3.332c-1.841,0-3.333,1.492-3.333,3.332C310.208,196.759,311.701,198.251,313.542,198.251z
	 M334.875,198.251c1.841,0,3.333-1.492,3.333-3.334c0-1.84-1.492-3.332-3.333-3.332c-1.841,0-3.333,1.492-3.333,3.332
	C331.542,196.759,333.034,198.251,334.875,198.251z M270.875,254.917c1.841,0,3.333-1.492,3.333-3.332
	c0-1.842-1.492-3.334-3.333-3.334c-1.841,0-3.333,1.492-3.333,3.334C267.542,253.425,269.034,254.917,270.875,254.917z
	 M292.208,254.917c1.841,0,3.333-1.492,3.333-3.332c0-1.842-1.492-3.334-3.333-3.334c-1.841,0-3.333,1.492-3.333,3.334
	C288.875,253.425,290.367,254.917,292.208,254.917z M313.542,254.917c1.841,0,3.333-1.492,3.333-3.332
	c0-1.842-1.492-3.334-3.333-3.334c-1.841,0-3.333,1.492-3.333,3.334C310.208,253.425,311.701,254.917,313.542,254.917z
	 M334.875,254.917c1.841,0,3.333-1.492,3.333-3.332c0-1.842-1.492-3.334-3.333-3.334c-1.841,0-3.333,1.492-3.333,3.334
	C331.542,253.425,333.034,254.917,334.875,254.917z M270.875,313.585c1.841,0,3.333-1.492,3.333-3.332
	c0-1.842-1.492-3.334-3.333-3.334c-1.841,0-3.333,1.492-3.333,3.334C267.542,312.093,269.034,313.585,270.875,313.585z
	 M292.208,313.585c1.841,0,3.333-1.492,3.333-3.332c0-1.842-1.492-3.334-3.333-3.334c-1.841,0-3.333,1.492-3.333,3.334
	C288.875,312.093,290.367,313.585,292.208,313.585z M313.542,313.585c1.841,0,3.333-1.492,3.333-3.332
	c0-1.842-1.492-3.334-3.333-3.334c-1.841,0-3.333,1.492-3.333,3.334C310.208,312.093,311.701,313.585,313.542,313.585z
	 M334.875,313.585c1.841,0,3.333-1.492,3.333-3.332c0-1.842-1.492-3.334-3.333-3.334c-1.841,0-3.333,1.492-3.333,3.334
	C331.542,312.093,333.034,313.585,334.875,313.585z M270.875,375.585c1.841,0,3.333-1.492,3.333-3.332
	c0-1.842-1.492-3.334-3.333-3.334c-1.841,0-3.333,1.492-3.333,3.334C267.542,374.093,269.034,375.585,270.875,375.585z
	 M292.208,375.585c1.841,0,3.333-1.492,3.333-3.332c0-1.842-1.492-3.334-3.333-3.334c-1.841,0-3.333,1.492-3.333,3.334
	C288.875,374.093,290.367,375.585,292.208,375.585z M313.542,375.585c1.841,0,3.333-1.492,3.333-3.332
	c0-1.842-1.492-3.334-3.333-3.334c-1.841,0-3.333,1.492-3.333,3.334C310.208,374.093,311.701,375.585,313.542,375.585z
	 M334.875,375.585c1.841,0,3.333-1.492,3.333-3.332c0-1.842-1.492-3.334-3.333-3.334c-1.841,0-3.333,1.492-3.333,3.334
	C331.542,374.093,333.034,375.585,334.875,375.585z"></path>
</svg>